<svg xmlns="http://www.w3.org/2000/svg" width="90" height="32" fill="none">
  <g filter="url(#a)">
    <rect width="90" height="32" fill="#335fff" rx="4"/>
    <path fill="#fff" d="M14.445 9.484q.805-.062 1.555.125a4.3 4.3 0 0 1 1.5.696v11.687q-.984-.742-2.133-.726a3.8 3.8 0 0 0-1.281.25q-.68.258-1.352.773-.242.195-.554.227a1.15 1.15 0 0 1-.555-.094 1.01 1.01 0 0 1-.625-.937v-9.868q0-.336.203-.594.492-.624 1.367-1.039a5.3 5.3 0 0 1 1.875-.5m4.055.782q.672-.453 1.477-.641.734-.172 1.523-.11a5.4 5.4 0 0 1 1.79.446q.85.375 1.374.945l.133.149q.203.258.203.593v9.836q0 .33-.187.594-.173.234-.446.344-.266.117-.547.094a1.03 1.03 0 0 1-.554-.227 5.2 5.2 0 0 0-1.352-.773 3.8 3.8 0 0 0-1.281-.25q-1.149-.016-2.133.726zM34.792 20v-7.7h2.541c2.53 0 4.059 1.166 4.059 3.85S39.863 20 37.333 20zm2.607-1.452c1.573 0 2.453-.748 2.453-2.398s-.88-2.398-2.453-2.398h-1.111v4.796zm7.57 1.562c-1.75 0-2.85-1.221-2.85-3.014s1.1-3.014 2.85-3.014 2.849 1.221 2.849 3.014-1.1 3.014-2.85 3.014m.01-1.298c.837 0 1.409-.627 1.409-1.716s-.572-1.716-1.408-1.716-1.43.627-1.43 1.716.594 1.716 1.43 1.716m6.51 1.298c-1.737 0-2.881-1.221-2.881-3.014s1.144-3.014 2.882-3.014c.902 0 1.782.374 2.277 1.023l-.946.946a1.75 1.75 0 0 0-1.364-.671c-.836 0-1.42.627-1.42 1.716s.584 1.716 1.42 1.716c.572 0 1.056-.286 1.364-.671l.946.946c-.495.649-1.375 1.023-2.277 1.023m5.272 0c-.99 0-1.727-.352-2.387-.891l.748-1.012c.462.407 1.012.693 1.64.693.582 0 .912-.198.912-.572 0-.352-.242-.473-.715-.572l-.737-.154c-1-.209-1.584-.715-1.584-1.661 0-1.144.825-1.859 2.156-1.859.836 0 1.584.253 2.19.803l-.782.968c-.429-.352-.89-.561-1.43-.561-.396 0-.77.132-.77.495 0 .275.176.451.737.572l.814.176c.87.187 1.518.638 1.518 1.606 0 1.232-.913 1.969-2.31 1.969m16.863-8.922q.235 0 .398.164.165.164.165.398t-.165.398a.54.54 0 0 1-.398.165h-3.562v7.874h7.874v-3.562q0-.235.165-.398a.54.54 0 0 1 .398-.165q.235 0 .398.165.165.164.165.398v3.75a.9.9 0 0 1-.13.469.9.9 0 0 1-.34.34.9.9 0 0 1-.468.128h-8.25a.9.9 0 0 1-.469-.128.93.93 0 0 1-.346-.34.93.93 0 0 1-.123-.469v-8.25q0-.252.124-.469a.93.93 0 0 1 .345-.34.9.9 0 0 1 .469-.129zm4.875 0q.235 0 .398.164.165.164.165.398V14q0 .235-.165.398a.54.54 0 0 1-.398.165.54.54 0 0 1-.398-.165.54.54 0 0 1-.165-.398v-.89l-3.539 3.538a.54.54 0 0 1-.398.165.54.54 0 0 1-.398-.165.54.54 0 0 1-.165-.398q0-.235.165-.398l3.539-3.54h-.891a.54.54 0 0 1-.398-.164.54.54 0 0 1-.165-.398q0-.235.165-.398a.54.54 0 0 1 .398-.165z"/>
  </g>
  <defs>
    <filter id="a" width="90" height="34" x="0" y="-2" color-interpolation-filters="sRGB" filterUnits="userSpaceOnUse">
      <feFlood flood-opacity="0" result="BackgroundImageFix"/>
      <feBlend in="SourceGraphic" in2="BackgroundImageFix" result="shape"/>
      <feColorMatrix in="SourceAlpha" result="hardAlpha" values="0 0 0 0 0 0 0 0 0 0 0 0 0 0 0 0 0 0 127 0"/>
      <feOffset dy="-2"/>
      <feGaussianBlur stdDeviation="1.65"/>
      <feComposite in2="hardAlpha" k2="-1" k3="1" operator="arithmetic"/>
      <feColorMatrix values="0 0 0 0 1 0 0 0 0 1 0 0 0 0 1 0 0 0 0.11 0"/>
      <feBlend in2="shape" result="effect1_innerShadow_25_79"/>
    </filter>
  </defs>
</svg>
