<svg xmlns="http://www.w3.org/2000/svg" width="89" height="32" fill="none">
  <g filter="url(#a)">
    <rect width="89" height="32" fill="#ad4646" rx="4"/>
    <g clip-path="url(#b)">
      <path fill="#f2c57e" d="m16.507 23.223-.734 2.934s6.674.183 9.46-2.09c2.787-2.274 2.09-2.127 2.09-2.127l-2.933-2.787z"/>
      <path fill="#bd704b" d="M18.487 23.627s.22 2.163.953 2.566c0 0-3.557.257-3.483-.696l.513-2.31z"/>
      <path fill="#f2c57e" d="M15.993 18.237s.66.916.807 2.273c.147 1.393-1.467 2.53 1.503 3.08 2.677.477 8.434-2.017 6.564-3.887-1.174-1.173-1.98-2.126-1.467-4.4.55-2.273-2.603-3.666-2.603-3.666z"/>
      <path fill="#bd704b" d="M22.997 17.467s.99 2.603 4.216 4.546l.257-.586s-2.713-.844-4.18-4.07-.367.11-.293.11m-5.794-9.204s-1.87.807-1.026 6.6c.256 3.154-1.064 2.897-1.32 2.604-.294-.257.88-1.87.22-2.42s-1.467-.037-2.274-1.614c-1.026-2.053.184-1.21 1.137-2.97.697-1.283 1.21-2.016 1.797-1.943.476.073.916-.623 1.466-.257"/>
      <path fill="#f2c57e" d="M13.463 14.937s.074 1.356-.183 2.126c-.403 1.137.623 2.677 2.127 1.027s-1.944-3.153-1.944-3.153"/>
      <path fill="#f2c57e" d="M21.09 8.667s-2.897-1.467-5.207.183-.476 1.43-1.87 3.52c-1.393 2.09-.256 6.783 4.217 6.857s4.4-8.507 4.4-8.507-.44-1.907-1.54-2.053"/>
      <path fill="#bd704b" d="M20.063 18.2s-1.393 1.247-1.32 2.09c.037.843 3.484.66.44 1.503-.843.22-.806 1.614-.146 1.87.623.257-2.53-.256-2.494-1.32.037-1.063.477-2.896-.586-3.593-.037 0 2.64.807 4.106-.55"/>
      <path fill="#ad4646" d="M16.507 22.27s2.75 1.32 5.573-.22c2.09-1.137 2.75-2.383 2.53-2.64 0 0 .513.037.99.77.367.55-.22 2.237-3.3 3.52-2.897 1.173-5.5.44-6.013-.073-.477-.514.22-1.357.22-1.357"/>
      <path fill="#3f2418" d="M15.407 11.93a.33.33 0 0 1-.33-.33v-.77c0-.183.146-.33.33-.33.183 0 .33.147.33.33v.77c0 .183-.147.33-.33.33"/>
      <path fill="#f2c57e" d="M16.25 11.013s-2.42 1.724-3.337 2.09c-.916.367-.88 1.357.367 2.384s4.95-1.65 2.97-4.474"/>
      <path fill="#bd704b" d="M12.73 14.9s.917.99.367 2.09c-.367.733 0 2.127 1.356 1.723 0 0-1.576.074-.953-1.686.22-.624.22-1.614-.77-2.127m7.773-6.49s2.64 1.063 1.687 6.857c-.33 3.153 1.21 2.896 1.577 2.603.33-.257.366-1.283 1.136-1.797.77-.513 2.567-2.163 1.65-3.776-.916-1.614-1.87-1.284-2.456-2.347-.55-.953-.917-1.1-1.577-1.1-.55.037-1.32-.807-2.017-.44"/>
      <path fill="#3f2418" d="M19.77 12.26a.37.37 0 0 1-.367-.367v-.88a.367.367 0 0 1 .734 0v.88c-.037.22-.184.367-.367.367"/>
      <path fill="#bd704b" d="M19.183 10.463s-.806-.44-.146-.806c.843-.477 1.796.293 1.943.733 0 0-.99-.917-1.797-.477-.44.22 0 .55 0 .55M15.7 9.767a.3.3 0 0 0-.147-.147c-.11-.073-.293-.073-.44-.037-.146.037-.256.147-.366.22.073-.183.183-.33.366-.403.074-.037.184-.037.257-.037.183 0 .367.074.513.184s.22.293.22.476c-.036.147-.11.294-.256.33-.037 0-.074.037-.074 0 0-.036.037-.073.037-.11.037-.073.037-.146 0-.256-.037-.074-.037-.147-.11-.22m-1.283 6.966s.806 2.714 3.813 2.054c2.75-.624 3.153-2.97 3.153-2.97.184.55-.586 3.74-4.326 3.446-2.714-.22-2.64-2.53-2.64-2.53"/>
      <path fill="#bd704b" d="M15.003 18.017s-.11 1.063-1.65.513c0 0 .77.88 1.724-.073.44-.477-.074-.44-.074-.44m-2.42-3.887c-.183-.11-.183-.403-.073-.587.147-.183.44-.33.66-.44 1.137-.513 2.347-1.21 3.19-2.2 0 0-2.567 1.797-3.923 2.274-.697.256.146.953.146.953"/>
      <path fill="#ad4646" d="M12.29 13.58c-.403.403.257 1.613 1.063 1.98.917.403 2.237-1.173 1.98-1.613-.293-.587-2.2-1.247-3.043-.367"/>
      <mask id="c" width="4" height="3" x="12" y="13" maskUnits="userSpaceOnUse" style="mask-type:luminance">
        <path fill="#fff" d="M12.29 13.58c-.403.403.257 1.613 1.063 1.98.917.403 2.237-1.173 1.98-1.613-.293-.587-2.2-1.247-3.043-.367"/>
      </mask>
      <g mask="url(#c)">
        <path fill="#6a2524" d="M13.903 14.937c-.073-.11-.073-.294 0-.367.037-.037.074-.073.11-.073.074-.037.147-.037.184-.037.33-.037.696.11.916.367.184.183.11.366-.073.476a.94.94 0 0 1-.77.037 1.3 1.3 0 0 1-.367-.403m-.806.036c.036-.11.073-.256 0-.366-.037-.037-.074-.074-.11-.074-.037-.036-.11-.036-.147-.036-.257-.037-.513.11-.733.366-.147.184-.074.367.073.477.183.11.403.147.587.037.146-.074.256-.22.33-.404"/>
      </g>
      <path fill="#ad4646" d="M19 27c-6.05 0-11-4.913-11-11S12.95 5 19 5s11 4.95 11 11-4.913 11-11 11m0-20.533c-5.243 0-9.533 4.29-9.533 9.533s4.29 9.533 9.533 9.533 9.533-4.29 9.533-9.533S24.243 6.467 19 6.467"/>
      <path fill="#bd704b" d="M15.883 8.63s3.337-1.393 5.757.733c0 0-.073-.99-1.943-1.393-.99-.22-3.19-.183-3.814.66m-.293 8.433c.121 0 .22-.065.22-.146s-.099-.147-.22-.147-.22.066-.22.147.099.146.22.146m1.43.77c.122 0 .22-.065.22-.146s-.098-.147-.22-.147-.22.066-.22.147.098.146.22.146m1.283-.036c.122 0 .22-.066.22-.147s-.098-.147-.22-.147c-.121 0-.22.066-.22.147s.099.147.22.147m-.623.66c.122 0 .22-.066.22-.147s-.098-.147-.22-.147-.22.066-.22.147.098.147.22.147m-1.613-.404c.121 0 .22-.065.22-.146s-.099-.147-.22-.147c-.122 0-.22.066-.22.147s.098.146.22.146"/>
    </g>
    <path fill="#fff" d="M38.158 20h-2.376l-1.562-7.7h1.672l.979 5.874h.176l1.1-5.874h2.376l1.1 5.874h.176l.979-5.874h1.672L42.888 20h-2.376l-1.089-6.05h-.176zm8.495.11c-.968 0-1.837-.594-1.837-1.815 0-1.1.792-1.815 2.343-1.815h1.342v-.099c0-.781-.462-1.045-1.067-1.045-.638 0-1.144.275-1.76.737l-.67-1.045c.703-.528 1.517-.902 2.463-.902 1.42 0 2.442.583 2.442 2.211V20h-1.408v-.649l-.176-.066c-.396.539-.913.825-1.672.825m.462-1.21c.616 0 1.1-.341 1.386-.748v-.66h-1.364c-.583 0-.913.242-.913.704 0 .429.363.704.891.704m5.659 1.1h-1.408v-7.81h1.408zm2.857 0h-1.408v-7.81h1.408zm2.362 2.2c-.396 0-.736-.088-1-.176v-1.287c.351.11.604.165.945.165.473 0 .749-.242.924-.682l.088-.22h-.23l-2.233-5.764h1.572l1.376 3.828h.175l1.343-3.828h1.561l-2.21 5.94c-.573 1.529-1.288 2.024-2.31 2.024m14.631-11.012q.235 0 .398.164.165.164.165.398t-.165.398a.54.54 0 0 1-.398.165h-3.562v7.874h7.874v-3.562q0-.235.165-.398a.54.54 0 0 1 .398-.165q.235 0 .398.165.165.164.165.398v3.75a.9.9 0 0 1-.13.469.9.9 0 0 1-.34.34.9.9 0 0 1-.468.128h-8.25a.9.9 0 0 1-.469-.128.93.93 0 0 1-.346-.34.93.93 0 0 1-.123-.469v-8.25q0-.252.124-.469a.93.93 0 0 1 .345-.34.9.9 0 0 1 .469-.129zm4.875 0q.235 0 .398.164.165.164.165.398V14q0 .235-.165.398a.54.54 0 0 1-.398.165.54.54 0 0 1-.398-.165.54.54 0 0 1-.165-.398v-.89l-3.539 3.538a.54.54 0 0 1-.398.165.54.54 0 0 1-.398-.165.54.54 0 0 1-.165-.398q0-.235.165-.398l3.539-3.54h-.891a.54.54 0 0 1-.398-.164.54.54 0 0 1-.165-.398q0-.235.165-.398a.54.54 0 0 1 .398-.165z"/>
  </g>
  <defs>
    <clipPath id="b">
      <path fill="#fff" d="M8 5h22v22H8z"/>
    </clipPath>
    <filter id="a" width="89" height="34" x="0" y="-2" color-interpolation-filters="sRGB" filterUnits="userSpaceOnUse">
      <feFlood flood-opacity="0" result="BackgroundImageFix"/>
      <feBlend in="SourceGraphic" in2="BackgroundImageFix" result="shape"/>
      <feColorMatrix in="SourceAlpha" result="hardAlpha" values="0 0 0 0 0 0 0 0 0 0 0 0 0 0 0 0 0 0 127 0"/>
      <feOffset dy="-2"/>
      <feGaussianBlur stdDeviation="1.65"/>
      <feComposite in2="hardAlpha" k2="-1" k3="1" operator="arithmetic"/>
      <feColorMatrix values="0 0 0 0 1 0 0 0 0 1 0 0 0 0 1 0 0 0 0.11 0"/>
      <feBlend in2="shape" result="effect1_innerShadow_25_2"/>
    </filter>
  </defs>
</svg>
